# xmcd
#
# Track frame offsets:
#	150
#	874
#	16798
#	31670
#	44841
#	59459
#	61835
#	75789
#	79465
#	93660
#	112599
#	126348
#	140699
#	153646
#	177162
#	188898
#	210128
#	222826
#	238237
#	254043
#	269020
#	283254
#	297188
#	315034
#	332829
#	353191
#	353913
#
# Disc length: 4725 seconds
#
# Revision: 1
# Processed by: cddbd v1.5.2PL0 Copyright (c) Steve Scherf et al.
# Submitted via: audiograbber 1.83.01
#
DISCID=8812731b
DTITLE=Country Hotdisc - Country Hotdisc 059
DYEAR=1900
DGENRE=
TTITLE0=Intro - Intro
TTITLE1=Make Ready  - Scott Gibson
TTITLE2=Losing You  - Doug Stone
TTITLE3=You Are The One That I Love  - Fred Leonard
TTITLE4=What You See Is What You Get  - Frank Jennings
TTITLE5=Talking Bout The Song  - Arly
TTITLE6=I´m Bound For Home  - Arly
TTITLE7=Talking Bout The Song  - Lane Brody
TTITLE8=Over You  - Lane Brody
TTITLE9=Wil Woods Man  - Donald Wayne Johnson
TTITLE10=Gone For Good  - Jessica Phillips
TTITLE11=Dammad If You Do  - Tonny Åbo
TTITLE12=Watchin´  - Troy Cook Jr
TTITLE13=The Leaving Shelf  - K C Williams
TTITLE14=Man Of The Run  - Mandy
TTITLE15=Godspeed  - Dixie Chicks
TTITLE16=A Man In Love - Bill Stewart
TTITLE17=Bran New Man - Clint Miller
TTITLE18=As Good For Me As You - Luke Guy Reed
TTITLE19=The Dash  - Colt Prather
TTITLE20=The Back Of Your Hand  - Dwight Yoakam
TTITLE21=Honey Coloured Frame  - Pen Lehman With Marie Ostler
TTITLE22=Forgetting You  - Bab Black
TTITLE23=Beer, Bait And Ammo - Sammy Kershaw
TTITLE24=Radio Interview  - Arly
TTITLE25=Id´s For Radio  - Arly
TTITLE26=Id´s For Radio  - Arly
EXTD=
EXTT0=
EXTT1=
EXTT2=
EXTT3=
EXTT4=
EXTT5=
EXTT6=
EXTT7=
EXTT8=
EXTT9=
EXTT10=
EXTT11=
EXTT12=
EXTT13=
EXTT14=
EXTT15=
EXTT16=
EXTT17=
EXTT18=
EXTT19=
EXTT20=
EXTT21=
EXTT22=
EXTT23=
EXTT24=
EXTT25=
EXTT26=
PLAYORDER=
